<svg xmlns="http://www.w3.org/2000/svg" viewBox="0 0 1200 760" role="img" aria-labelledby="title desc">
  <title id="title">Family changing story choices together</title>
  <desc id="desc">A father figure and child choose playful story paths with gestures, cuddles, and imagination prompts.</desc>
  <defs><linearGradient id="bg" x1="0" x2="1"><stop offset="0" stop-color="#fff7df"/><stop offset="1" stop-color="#e8fbff"/></linearGradient></defs>
  <rect width="1200" height="760" rx="52" fill="url(#bg)"/>
  <circle cx="1020" cy="140" r="95" fill="#f7b733" opacity=".28"/>
  <circle cx="170" cy="610" r="120" fill="#5c6ac4" opacity=".12"/>
  <g fill="none" stroke="#5c6ac4" stroke-width="10" stroke-linecap="round" stroke-linejoin="round" opacity=".6">
    <path d="M330 205c73-58 167-58 240 0"/><path d="M630 205c73-58 167-58 240 0"/>
  </g>
  <g transform="translate(155 190)">
    <rect x="0" y="0" width="250" height="170" rx="30" fill="#fff" stroke="#5c6ac4" stroke-width="6"/>
    <text x="125" y="68" font-family="Poppins, Arial" font-size="34" font-weight="700" fill="#1f2a44" text-anchor="middle">What if?</text>
    <text x="125" y="116" font-family="Poppins, Arial" font-size="26" fill="#5c6ac4" text-anchor="middle">Change the choice</text>
  </g>
  <g transform="translate(475 115)">
    <rect x="0" y="0" width="250" height="170" rx="30" fill="#fff" stroke="#31c6d4" stroke-width="6"/>
    <text x="125" y="68" font-family="Poppins, Arial" font-size="34" font-weight="700" fill="#1f2a44" text-anchor="middle">Act it out</text>
    <text x="125" y="116" font-family="Poppins, Arial" font-size="26" fill="#178f99" text-anchor="middle">Roar, tiptoe, fly</text>
  </g>
  <g transform="translate(795 190)">
    <rect x="0" y="0" width="250" height="170" rx="30" fill="#fff" stroke="#f7b733" stroke-width="6"/>
    <text x="125" y="68" font-family="Poppins, Arial" font-size="34" font-weight="700" fill="#1f2a44" text-anchor="middle">Cuddle cue</text>
    <text x="125" y="116" font-family="Poppins, Arial" font-size="26" fill="#a86700" text-anchor="middle">Pause and hug</text>
  </g>
  <g transform="translate(270 390)">
    <ellipse cx="310" cy="245" rx="355" ry="55" fill="#1f2a44" opacity=".12"/>
    <circle cx="220" cy="95" r="76" fill="#c88a5c"/>
    <path d="M154 86c16-74 100-111 162-55-46-3-91 15-162 55z" fill="#38415f"/>
    <circle cx="198" cy="98" r="7" fill="#1f2a44"/><circle cx="245" cy="98" r="7" fill="#1f2a44"/>
    <path d="M196 134c20 18 48 18 68 0" fill="none" stroke="#1f2a44" stroke-width="7" stroke-linecap="round"/>
    <path d="M150 185c44-43 97-64 158-64s114 21 158 64v112H150z" fill="#5c6ac4"/>
    <circle cx="420" cy="135" r="55" fill="#efb28b"/>
    <path d="M372 125c18-51 76-62 111-24-30-1-62 7-111 24z" fill="#6b4b3e"/>
    <path d="M382 199c28-25 64-38 108-38s80 13 108 38v98H382z" fill="#ff8fa3"/>
    <path d="M305 215c34-22 75-26 115-3" fill="none" stroke="#c88a5c" stroke-width="30" stroke-linecap="round"/>
    <path d="M555 208c73-47 126-65 160-53" fill="none" stroke="#efb28b" stroke-width="24" stroke-linecap="round"/>
    <path d="M706 148l36-35 36 35" fill="none" stroke="#f7b733" stroke-width="12" stroke-linecap="round" stroke-linejoin="round"/>
    <path d="M742 118v115" stroke="#f7b733" stroke-width="12" stroke-linecap="round"/>
  </g>
</svg>
