<svg xmlns="http://www.w3.org/2000/svg" viewBox="0 0 64 64">
  <defs>
    <linearGradient id="baboo-bg" x1="0" y1="0" x2="1" y2="1">
      <stop offset="0%" stop-color="#5c6ac4" />
      <stop offset="100%" stop-color="#31c6d4" />
    </linearGradient>
    <linearGradient id="baboo-body" x1="0.2" y1="0" x2="1" y2="1">
      <stop offset="0%" stop-color="#5263d8" />
      <stop offset="100%" stop-color="#6c7ff2" />
    </linearGradient>
    <linearGradient id="baboo-wing" x1="0" y1="0" x2="1" y2="1">
      <stop offset="0%" stop-color="#9fb0ff" />
      <stop offset="100%" stop-color="#6f8ff8" />
    </linearGradient>
  </defs>
  <circle cx="32" cy="32" r="30" fill="url(#baboo-bg)" />
  <path
    d="M19.2 33.2c-2.5.7-4.8.4-6.8-.8 1.5-3.2 4.4-5.8 7.9-7l3.4 2.6z"
    fill="#4352c6"
    opacity="0.65"
  />
  <ellipse cx="35" cy="38" rx="15" ry="13" fill="url(#baboo-body)" />
  <ellipse
    cx="37"
    cy="39"
    rx="9"
    ry="11"
    fill="url(#baboo-wing)"
    transform="rotate(-18 37 39)"
    opacity="0.95"
  />
  <circle cx="27.5" cy="25" r="10.5" fill="url(#baboo-body)" />
  <ellipse cx="34" cy="40" rx="8.5" ry="6.6" fill="#f2f5ff" opacity="0.9" />
  <path d="M38 25.8l9.6 4.2L38 34.2z" fill="#f7b733" />
  <circle cx="32.3" cy="27" r="3.2" fill="#ffffff" />
  <circle cx="33" cy="27" r="1.6" fill="#1f2a44" />
  <circle cx="33.6" cy="26" r="0.6" fill="#ffffff" />
  <circle cx="28.5" cy="33.2" r="2.5" fill="#f47c6c" opacity="0.75" />
  <path
    d="M45.5 44.8c3.9 1.1 7.8.5 10.9-1.8-2.5-2.9-6.2-4.5-10.1-4.6z"
    fill="#6f8ff8"
    opacity="0.5"
  />
</svg>
