<svg xmlns="http://www.w3.org/2000/svg" viewBox="0 0 1200 760" role="img" aria-labelledby="title desc">
  <title id="title">Father reading a story with two children</title>
  <desc id="desc">A warm bedtime illustration of a father figure cuddling two children while reading a glowing storybook.</desc>
  <defs>
    <linearGradient id="bg" x1="0" x2="1" y1="0" y2="1">
      <stop offset="0" stop-color="#5c6ac4"/>
      <stop offset="1" stop-color="#31c6d4"/>
    </linearGradient>
    <linearGradient id="book" x1="0" x2="1">
      <stop offset="0" stop-color="#fff3bd"/>
      <stop offset="1" stop-color="#f7b733"/>
    </linearGradient>
    <filter id="shadow" x="-20%" y="-20%" width="140%" height="140%">
      <feDropShadow dx="0" dy="18" stdDeviation="18" flood-color="#1f2a44" flood-opacity=".22"/>
    </filter>
  </defs>
  <rect width="1200" height="760" rx="52" fill="url(#bg)"/>
  <circle cx="1010" cy="130" r="72" fill="#fff" opacity=".18"/>
  <circle cx="150" cy="150" r="10" fill="#fff" opacity=".75"/>
  <circle cx="240" cy="95" r="7" fill="#fff" opacity=".65"/>
  <circle cx="980" cy="235" r="8" fill="#fff" opacity=".7"/>
  <path d="M105 565c135-84 259-72 376-33 123 41 214 42 327-19 106-57 204-48 298 34v153H105z" fill="#fff" opacity=".18"/>
  <g filter="url(#shadow)">
    <rect x="190" y="458" width="820" height="142" rx="71" fill="#fff" opacity=".96"/>
    <path d="M292 496c42-74 132-116 236-116h144c118 0 212 50 244 135l-56 85H344z" fill="#f6e3cf"/>
    <circle cx="600" cy="258" r="114" fill="#9b6a48"/>
    <path d="M487 244c18-91 91-148 177-121 68 21 100 78 92 143-57-36-132-43-269-22z" fill="#38415f"/>
    <circle cx="600" cy="276" r="86" fill="#c88a5c"/>
    <circle cx="570" cy="278" r="8" fill="#1f2a44"/>
    <circle cx="634" cy="278" r="8" fill="#1f2a44"/>
    <path d="M572 322c22 22 55 22 78 0" fill="none" stroke="#1f2a44" stroke-width="8" stroke-linecap="round"/>
    <path d="M518 420c-67 20-119 69-151 140" fill="none" stroke="#c88a5c" stroke-width="40" stroke-linecap="round"/>
    <path d="M683 420c70 19 125 69 159 140" fill="none" stroke="#c88a5c" stroke-width="40" stroke-linecap="round"/>
    <circle cx="398" cy="402" r="58" fill="#efb28b"/>
    <path d="M344 385c22-58 88-67 125-20-29-4-66 6-125 20z" fill="#6b4b3e"/>
    <circle cx="802" cy="404" r="58" fill="#d89467"/>
    <path d="M752 389c17-62 88-77 128-29-31-1-67 11-128 29z" fill="#513a47"/>
    <path d="M408 505c-40 22-63 54-70 95h178c-8-46-44-82-108-95z" fill="#ff8fa3"/>
    <path d="M792 505c40 22 63 54 70 95H684c8-46 44-82 108-95z" fill="#75d1c4"/>
    <path d="M430 515c-42 5-78 24-104 56" fill="none" stroke="#efb28b" stroke-width="28" stroke-linecap="round"/>
    <path d="M770 515c42 5 78 24 104 56" fill="none" stroke="#d89467" stroke-width="28" stroke-linecap="round"/>
    <path d="M475 525c44-40 91-54 125-34v124H374c21-37 54-67 101-90z" fill="url(#book)"/>
    <path d="M725 525c-44-40-91-54-125-34v124h226c-21-37-54-67-101-90z" fill="#ffe8a3"/>
    <path d="M600 494v119" stroke="#c77724" stroke-width="6"/>
    <path d="M501 555c29-16 58-23 87-21M612 534c31-3 62 4 93 21" stroke="#9d6b25" stroke-width="8" stroke-linecap="round" opacity=".55"/>
  </g>
</svg>
